#!OML:ASF H:\Terrain\Patient Classification 1\Animal2\Wednesday\Animal2.ASF
:FULLY-SPECIFIED
:DEGREES
1277
root 14.1547 17.8043 -21.5026 5.94053 -17.7969 -2.91948
lowerback 8.57412 -1.81945 -0.890912
upperback -1.5751 -2.55702 -0.494492
thorax -6.44653 -1.23243 0.340861
lowerneck 11.2864 10.6791 17.3716
upperneck -5.07796 15.594 -24.0427
head 0.0682701 8.50772 -10.4864
rclavicle -5.99336e-014 7.15625e-015
rhumerus -45.6893 15.0227 -85.9282
rradius 85.1908
rwrist -1.27483
rhand -11.4236 28.6286
rfingers 7.12502
rthumb 14.6124 -0.836594
lclavicle -5.99336e-014 7.15625e-015
lhumerus -40.4079 -0.388286 60.4522
lradius 97.7708
lwrist 50.0402
lhand -30.2011 9.26639
lfingers 7.12502
lthumb -3.51168 39.2172
rfemur -19.0142 2.4768 20.4011
rtibia 41.5393
rfoot -20.4163 -4.66102
rtoes 25.1834
lfemur -6.25586 0.627579 -21.9366
ltibia 20.5685
lfoot -19.6921 -0.33017
ltoes -18.1984
1278
root 14.1456 17.8053 -21.4738 5.93556 -17.3764 -2.96324
lowerback 8.68216 -1.97503 -0.83548
upperback -1.6831 -2.75636 -0.41546
thorax -6.61938 -1.32897 0.426774
lowerneck 11.7839 10.5881 17.4725
upperneck -5.2672 15.5149 -24.3007
head -0.0538478 8.50838 -10.6451
rclavicle -9.14409e-015 8.74653e-015
rhumerus -45.8901 13.5526 -85.7951
rradius 82.4131
rwrist -2.17881
rhand -13.2511 27.5865
rfingers 7.12502
rthumb 12.8512 -1.99787
lclavicle -9.14409e-015 8.74653e-015
lhumerus -41.2054 -0.936458 61.2311
lradius 95.9031
lwrist 48.7632
lhand -29.3845 8.91728
lfingers 7.12502
lthumb -2.72308 38.8796
rfemur -19.4973 2.22642 20.5285
rtibia 41.6869
rfoot -20.3831 -4.38101
rtoes 25.3811
lfemur -6.11665 0.313182 -21.852
ltibia 20.4636
lfoot -19.7897 -0.332037
ltoes -18.937
1279
root 14.1354 17.8007 -21.4481 5.87643 -17.0782 -3.02424
lowerback 8.78091 -2.07983 -0.776763
upperback -1.67779 -2.88731 -0.362935
thorax -6.669 -1.39381 0.471268
lowerneck 12.0737 10.5427 17.5752
upperneck -5.44807 15.4755 -24.4976
head -0.135274 8.51508 -10.7627
rclavicle -7.92654e-014 -7.95139e-016
rhumerus -45.8648 11.8838 -85.5065
rradius 79.4546
rwrist -2.63974
rhand -15.0423 27.1067
rfingers 7.12502
rthumb 11.124 -2.57847
lclavicle -7.92654e-014 -7.95139e-016
lhumerus -41.8617 -1.50534 61.9748
lradius 94.0626
lwrist 47.5829
lhand -29.2896 8.72483
lfingers 7.12502
lthumb -2.63139 38.6883
rfemur -19.9466 2.17521 20.6728
rtibia 41.7412
rfoot -20.2048 -4.63337
rtoes 24.9307
lfemur -5.86749 0.158412 -21.7542
ltibia 20.3004
lfoot -19.7929 -0.241253
ltoes -19.6261
1280
root 14.1254 17.8012 -21.4238 5.80022 -16.895 -3.09469
lowerback 8.84393 -2.06229 -0.76548
upperback -1.54179 -2.85725 -0.29819
thorax -6.55827 -1.37926 0.527569
lowerneck 11.9224 10.5216 17.6
upperneck -5.52413 15.4197 -24.5737
head -0.134058 8.48355 -10.7872
rclavicle 1.12313e-014 -5.56597e-015
rhumerus -45.5595 9.87799 -84.9336
rradius 76.5167
rwrist -3.0076
rhand -16.3583 26.6699
rfingers 7.12502
rthumb 9.85449 -3.07945
lclavicle 1.12313e-014 -5.56597e-015
lhumerus -42.0789 -2.17122 62.9479
lradius 91.9104
lwrist 46.3578
lhand -29.0475 9.02151
lfingers 7.12502
lthumb -2.39759 38.9878
rfemur -20.4127 2.31862 20.7979
rtibia 41.7023
rfoot -19.9922 -4.86775
rtoes 24.6405
lfemur -5.57145 -0.0104875 -21.6669
ltibia 20.11
lfoot -19.6468 -0.254042
ltoes -18.4518
1281
root 14.1136 17.7976 -21.3998 5.69709 -16.6369 -2.95458
lowerback 8.93459 -2.0443 -0.972541
upperback -1.45613 -2.85608 -0.293727
thorax -6.50894 -1.37129 0.649546
lowerneck 11.6615 10.4461 17.8087
upperneck -5.35043 15.3408 -24.6504
head -0.0345028 8.42695 -10.825
rclavicle -8.89561e-015 -1.74931e-014
rhumerus -45.2965 7.73747 -84.2777
rradius 73.4213
rwrist -3.33399
rhand -17.56 26.2972
rfingers 7.12502
rthumb 8.69498 -3.50375
lclavicle -8.89561e-015 -1.74931e-014
lhumerus -42.2781 -2.91528 63.9768
lradius 89.5345
lwrist 45.0831
lhand -28.4205 9.15853
lfingers 7.12502
lthumb -1.79206 39.1307
rfemur -20.8852 2.36649 20.6858
rtibia 41.5789
rfoot -19.8861 -4.69561
rtoes 25.2207
lfemur -5.32467 -0.324443 -21.795
ltibia 19.877
lfoot -19.5673 -0.159341
ltoes -18.3399
1282
root 14.0997 17.7949 -21.3709 5.63744 -16.256 -2.77844
lowerback 8.98343 -2.12608 -1.16809
upperback -1.45459 -2.98902 -0.3113
thorax -6.52425 -1.42933 0.761556
lowerneck 11.6538 10.36 18.0624
upperneck -5.17273 15.2862 -24.7358
head 0.032874 8.39623 -10.8928
rclavicle -3.26504e-014 -9.54166e-015
rhumerus -45.0069 5.63279 -83.6042
rradius 69.9678
rwrist -3.63205
rhand -18.7059 26.0284
rfingers 7.12502
rthumb 7.589 -3.81544
lclavicle -3.26504e-014 -9.54166e-015
lhumerus -42.6336 -3.59148 64.8801
lradius 87.0963
lwrist 43.9868
lhand -30.9151 9.2369
lfingers 7.12502
lthumb -4.20112 39.1752
rfemur -21.3316 2.41069 20.5283
rtibia 41.3739
rfoot -19.9909 -4.54
rtoes 25.6249
lfemur -5.07879 -0.604939 -21.9241
ltibia 19.5487
lfoot -19.543 -0.0301048
ltoes -19.6893
1283
root 14.0884 17.8021 -21.3366 5.68956 -15.9128 -2.78613
lowerback 8.88507 -2.25993 -1.14619
upperback -1.40279 -3.16018 -0.269746
thorax -6.40905 -1.51496 0.811159
lowerneck 11.768 10.33 18.0662
upperneck -5.3681 15.2315 -24.7566
head -0.0508243 8.37986 -10.9216
rclavicle 1.20265e-014 -8.74653e-015
rhumerus -44.5064 3.7635 -82.9487
rradius 66.4353
rwrist -4.02757
rhand -19.6062 25.2623
rfingers 7.12502
rthumb 6.71996 -4.61107
lclavicle 1.20265e-014 -8.74653e-015
lhumerus -42.8572 -4.14623 65.7937
lradius 84.442
lwrist 42.7517
lhand -38.949 12.2937
lfingers 7.12502
lthumb -11.9545 41.9323
rfemur -21.8443 2.49724 20.5451
rtibia 41.0768
rfoot -20.0468 -4.77346
rtoes 24.7125
lfemur -4.83109 -0.73878 -21.8695
ltibia 19.1613
lfoot -19.4606 -0.16157
ltoes -20.0072
